<?xml version="1.0" encoding="UTF-8" standalone="no"?>
<!-- Created with Inkscape (http://www.inkscape.org/) -->

<svg
   xmlns:dc="http://purl.org/dc/elements/1.1/"
   xmlns:cc="http://creativecommons.org/ns#"
   xmlns:rdf="http://www.w3.org/1999/02/22-rdf-syntax-ns#"
   xmlns:svg="http://www.w3.org/2000/svg"
   xmlns="http://www.w3.org/2000/svg"
   xmlns:sodipodi="http://sodipodi.sourceforge.net/DTD/sodipodi-0.dtd"
   xmlns:inkscape="http://www.inkscape.org/namespaces/inkscape"
   width="744.09448819"
   height="1052.3622047"
   id="svg2"
   version="1.1"
   inkscape:version="0.47 r22583"
   sodipodi:docname="6-triangle.eps">
  <defs
     id="defs4">
    <inkscape:perspective
       sodipodi:type="inkscape:persp3d"
       inkscape:vp_x="0 : 526.18109 : 1"
       inkscape:vp_y="0 : 1000 : 0"
       inkscape:vp_z="744.09448 : 526.18109 : 1"
       inkscape:persp3d-origin="372.04724 : 350.78739 : 1"
       id="perspective10" />
    <inkscape:perspective
       id="perspective3600"
       inkscape:persp3d-origin="0.5 : 0.33333333 : 1"
       inkscape:vp_z="1 : 0.5 : 1"
       inkscape:vp_y="0 : 1000 : 0"
       inkscape:vp_x="0 : 0.5 : 1"
       sodipodi:type="inkscape:persp3d" />
    <inkscape:perspective
       id="perspective3671"
       inkscape:persp3d-origin="0.5 : 0.33333333 : 1"
       inkscape:vp_z="1 : 0.5 : 1"
       inkscape:vp_y="0 : 1000 : 0"
       inkscape:vp_x="0 : 0.5 : 1"
       sodipodi:type="inkscape:persp3d" />
    <inkscape:perspective
       id="perspective3671-9"
       inkscape:persp3d-origin="0.5 : 0.33333333 : 1"
       inkscape:vp_z="1 : 0.5 : 1"
       inkscape:vp_y="0 : 1000 : 0"
       inkscape:vp_x="0 : 0.5 : 1"
       sodipodi:type="inkscape:persp3d" />
    <inkscape:perspective
       id="perspective3671-2"
       inkscape:persp3d-origin="0.5 : 0.33333333 : 1"
       inkscape:vp_z="1 : 0.5 : 1"
       inkscape:vp_y="0 : 1000 : 0"
       inkscape:vp_x="0 : 0.5 : 1"
       sodipodi:type="inkscape:persp3d" />
    <inkscape:perspective
       id="perspective3671-1"
       inkscape:persp3d-origin="0.5 : 0.33333333 : 1"
       inkscape:vp_z="1 : 0.5 : 1"
       inkscape:vp_y="0 : 1000 : 0"
       inkscape:vp_x="0 : 0.5 : 1"
       sodipodi:type="inkscape:persp3d" />
    <inkscape:perspective
       id="perspective3781"
       inkscape:persp3d-origin="0.5 : 0.33333333 : 1"
       inkscape:vp_z="1 : 0.5 : 1"
       inkscape:vp_y="0 : 1000 : 0"
       inkscape:vp_x="0 : 0.5 : 1"
       sodipodi:type="inkscape:persp3d" />
    <inkscape:perspective
       id="perspective3816"
       inkscape:persp3d-origin="0.5 : 0.33333333 : 1"
       inkscape:vp_z="1 : 0.5 : 1"
       inkscape:vp_y="0 : 1000 : 0"
       inkscape:vp_x="0 : 0.5 : 1"
       sodipodi:type="inkscape:persp3d" />
  </defs>
  <sodipodi:namedview
     id="base"
     pagecolor="#ffffff"
     bordercolor="#666666"
     borderopacity="1.0"
     inkscape:pageopacity="0.0"
     inkscape:pageshadow="2"
     inkscape:zoom="1.4"
     inkscape:cx="289.93542"
     inkscape:cy="748.33598"
     inkscape:document-units="px"
     inkscape:current-layer="layer1"
     showgrid="false"
     inkscape:window-width="986"
     inkscape:window-height="782"
     inkscape:window-x="842"
     inkscape:window-y="211"
     inkscape:window-maximized="0" />
  <metadata
     id="metadata7">
    <rdf:RDF>
      <cc:Work
         rdf:about="">
        <dc:format>image/svg+xml</dc:format>
        <dc:type
           rdf:resource="http://purl.org/dc/dcmitype/StillImage" />
        <dc:title></dc:title>
      </cc:Work>
    </rdf:RDF>
  </metadata>
  <g
     inkscape:label="Layer 1"
     inkscape:groupmode="layer"
     id="layer1">
    <path
       style="fill:none;stroke:#000000;stroke-width:1px;stroke-linecap:round;stroke-linejoin:round;stroke-opacity:1"
       d="m 75.5,125.79615 95.96449,-83.337577 104.55079,82.832507 -46.46702,106.5711 -104.0457,0 L 75.5,125.79615 z"
       id="path2816"
       sodipodi:nodetypes="cccccc" />
    <path
       style="fill:none;stroke:#000000;stroke-width:1px;stroke-linecap:round;stroke-linejoin:round;stroke-opacity:1"
       d="M 75.752538,125.79615 229.29572,231.60964 171.4645,42.71111 125.75509,231.86217 275.5102,125.29108 75.752538,125.79615 z"
       id="path2818"
       sodipodi:nodetypes="cccccc" />
    <path
       style="fill:none;stroke:#000000;stroke-width:1px;stroke-linecap:round;stroke-linejoin:round;stroke-opacity:1"
       d="m 340.5,125.79615 95.96449,-83.337573 104.55079,82.832503 -46.46702,106.5711 -104.0457,0 L 340.5,125.79615 z"
       id="path2816-1"
       sodipodi:nodetypes="cccccc" />
    <path
       style="fill:none;stroke:#000000;stroke-width:1px;stroke-linecap:round;stroke-linejoin:round;stroke-opacity:1"
       d="M 340.75254,125.79615 494.29572,231.60964 436.4645,42.711117 390.75509,231.86217 540.5102,125.29108 340.75254,125.79615 z"
       id="path2818-7"
       sodipodi:nodetypes="cccccc" />
    <path
       style="fill:#ffaaaa;fill-opacity:1;fill-rule:nonzero;stroke:none"
       d="m 197.26428,123.78994 c -1.18457,-3.23751 -23.85805,-77.972809 -23.7028,-78.128061 0.14755,-0.147546 98.3358,77.365641 99.72908,78.729571 0.16369,0.16024 -16.80176,0.29135 -37.70099,0.29135 -29.74846,0 -38.06954,-0.19386 -38.32529,-0.89286 z"
       id="path3649" />
    <path
       style="fill:#ffaaaa;fill-opacity:1;fill-rule:nonzero;stroke:none"
       d="m 152.89478,123.4328 c 0.19538,-0.6875 4.47139,-18.37982 9.50223,-39.316268 5.03084,-20.936451 9.2262,-37.811451 9.32302,-37.500001 0.42518,1.367736 23.1581,75.694009 23.49449,76.816269 0.35104,1.17112 -0.98376,1.25 -21.15015,1.25 -20.15899,0 -21.5023,-0.0793 -21.16959,-1.25 z"
       id="path3651" />
    <path
       style="fill:#ffaaaa;fill-opacity:1;fill-rule:nonzero;stroke:none"
       d="m 91.67449,112.98857 c 59.15098,-51.444048 77.76703,-67.462321 77.89521,-67.025298 0.0815,0.277886 -4.10372,18.023104 -9.3005,39.433818 l -9.44868,38.92857 -36.30367,0.18516 -36.303666,0.18515 13.461306,-11.7074 0,0 z"
       id="path3653" />
    <path
       style="fill:none;stroke:#000000;stroke-width:1px;stroke-linecap:round;stroke-linejoin:round;stroke-opacity:1"
       d="m 340.5,605.79615 95.96449,-83.33758 104.55079,82.83251 -46.46702,106.5711 -104.0457,0 L 340.5,605.79615 z"
       id="path2816-1-4"
       sodipodi:nodetypes="cccccc" />
    <path
       style="fill:none;stroke:#000000;stroke-width:1px;stroke-linecap:round;stroke-linejoin:round;stroke-opacity:1"
       d="M 340.75254,605.79615 494.29572,711.60964 436.4645,522.71111 390.75509,711.86217 540.5102,605.29108 340.75254,605.79615 z"
       id="path2818-7-0"
       sodipodi:nodetypes="cccccc" />
    <path
       style="fill:#ffaaaa;fill-opacity:1;fill-rule:nonzero;stroke:none"
       d="m 417.80755,123.63508 c 0.16917,-0.49107 4.46248,-18.16967 9.54068,-39.285781 5.07821,-21.116108 9.30063,-38.151822 9.38318,-37.857143 0.20035,0.71528 22.97091,75.186534 23.47826,76.785774 0.37168,1.17163 -0.95492,1.25 -21.15658,1.25 -16.93036,0 -21.48716,-0.1915 -21.24554,-0.89285 z"
       id="path3688" />
    <path
       style="fill:#ffaaaa;fill-opacity:1;fill-rule:nonzero;stroke:none"
       d="m 424.43852,182.38489 c -9.03572,-6.24571 -16.69732,-11.77395 -17.0258,-12.28497 -0.36114,-0.56184 1.4036,-9.19887 4.46429,-21.84915 2.78383,-11.50601 5.06151,-21.06851 5.06151,-21.25 0,-0.18149 9.93808,-0.32998 22.08462,-0.32998 l 22.08462,0 1.44451,4.46429 c 0.79448,2.45535 3.736,11.96971 6.5367,21.14302 2.8007,9.1733 5.25449,17.10169 5.45286,17.61864 0.37648,0.98109 -31.18761,23.94972 -32.81712,23.88045 -0.47169,-0.02 -8.25048,-5.14659 -17.28619,-11.3923 z"
       id="path3690" />
    <path
       style="fill:#ffaaaa;fill-opacity:1;fill-rule:nonzero;stroke:none"
       d="m 392.6528,228.32945 c 0,-1.25767 13.11186,-54.94096 13.5357,-55.41861 0.4218,-0.47533 30.25007,19.48481 32.76499,21.92529 0.77382,0.75093 -3.23822,3.88909 -22.30487,17.44657 -12.78662,9.09202 -23.41658,16.53095 -23.62211,16.53095 -0.20554,0 -0.37371,-0.21789 -0.37371,-0.4842 z"
       id="path3692" />
    <path
       style="fill:#ffaaaa;fill-opacity:1;fill-rule:nonzero;stroke:none"
       d="m 395.59219,229.65103 c 0.93691,-0.71801 11.72664,-8.45003 23.97717,-17.18225 l 22.27371,-15.87678 23.08343,15.88113 c 12.6959,8.73462 23.85001,16.46663 24.78692,17.18225 1.65299,1.26257 0.25859,1.30113 -47.06062,1.30113 -47.3766,0 -48.71561,-0.0371 -47.06061,-1.30548 z"
       id="path3694" />
    <path
       style="fill:#ffaaaa;fill-opacity:1;fill-rule:nonzero;stroke:none"
       d="m 486.22423,224.99138 c -2.94643,-2.07727 -13.76556,-9.56505 -24.04251,-16.63951 l -18.68537,-12.86266 15.73292,-11.2307 c 8.65311,-6.17689 15.88535,-11.07829 16.07163,-10.892 0.18629,0.18629 3.84874,11.85418 8.13877,25.92864 4.29004,14.07446 8.10129,26.47386 8.46944,27.55421 0.36816,1.08036 0.44503,1.95407 0.17082,1.94159 -0.2742,-0.0125 -2.90927,-1.72229 -5.8557,-3.79957 z"
       id="path3696" />
    <path
       style="fill:#ffaaaa;fill-opacity:1;fill-rule:nonzero;stroke:none"
       d="m 417.80755,603.63507 c 0.16917,-0.49107 4.46248,-18.16967 9.54068,-39.28578 5.07821,-21.11611 9.30064,-38.15182 9.38318,-37.85714 0.20035,0.71528 22.97092,75.18654 23.47826,76.78578 0.37168,1.17162 -0.95492,1.25 -21.15658,1.25 -16.93036,0 -21.48715,-0.1915 -21.24554,-0.89286 z"
       id="path3698" />
    <path
       style="fill:#ffaaaa;fill-opacity:1;fill-rule:nonzero;stroke:none"
       d="m 424.43852,662.38489 c -9.03571,-6.24571 -16.69732,-11.77395 -17.0258,-12.28497 -0.36114,-0.56184 1.40361,-9.19888 4.46429,-21.84915 2.78383,-11.50601 5.06151,-21.06851 5.06151,-21.25 0,-0.18149 9.93808,-0.32998 22.08462,-0.32998 l 22.08462,0 1.44451,4.46428 c 0.79448,2.45536 3.736,11.96972 6.5367,21.14302 2.8007,9.17331 5.25449,17.10169 5.45286,17.61864 0.37648,0.98109 -31.18761,23.94973 -32.81712,23.88046 -0.47169,-0.0201 -8.25048,-5.14659 -17.28619,-11.3923 z"
       id="path3700" />
    <path
       style="fill:#ffaaaa;fill-opacity:1;fill-rule:nonzero;stroke:none"
       d="m 392.65281,708.32944 c 0,-1.25766 13.11186,-54.94096 13.53569,-55.4186 0.4218,-0.47534 30.25007,19.4848 32.76499,21.92529 0.77382,0.75092 -3.23822,3.88909 -22.30487,17.44657 -12.78662,9.09202 -23.41657,16.53094 -23.62211,16.53094 -0.20554,0 -0.3737,-0.21789 -0.3737,-0.4842 z"
       id="path3702" />
    <path
       style="fill:#ffaaaa;fill-opacity:1;fill-rule:nonzero;stroke:none"
       d="m 473.45838,640.44019 c -7.54662,-24.25599 -10.15605,-33.22845 -9.77463,-33.60987 0.22892,-0.22892 17.04596,-0.55701 37.37121,-0.72909 20.32524,-0.17208 36.79427,-0.15805 36.59785,0.0312 -0.5015,0.48312 -59.45276,42.31587 -60.4989,42.93098 -0.59805,0.35164 -1.71184,-2.24729 -3.69553,-8.6232 z"
       id="path3704" />
    <path
       style="fill:#ffaaaa;fill-opacity:1;fill-rule:nonzero;stroke:none"
       d="m 462.42592,603.99222 c -0.56102,-0.96581 -24.11462,-78.21854 -23.90552,-78.40702 0.11211,-0.10106 16.47219,12.71793 36.35573,28.48664 19.88354,15.76871 42.34745,33.57216 49.9198,39.56323 l 13.7679,10.89286 -37.91336,0 c -20.85234,0 -38.05339,-0.24107 -38.22455,-0.53571 l 0,0 z"
       id="path3706" />
    <path
       style="fill:none;stroke:#000000;stroke-width:1px;stroke-linecap:round;stroke-linejoin:round;stroke-opacity:1"
       d="m 75.5,365.79608 95.96449,-83.3375 104.55079,82.8325 -46.46702,106.5711 -104.0457,0 L 75.5,365.79608 z"
       id="path2816-1-48"
       sodipodi:nodetypes="cccccc" />
    <path
       style="fill:none;stroke:#000000;stroke-width:1px;stroke-linecap:round;stroke-linejoin:round;stroke-opacity:1"
       d="m 75.75254,365.79608 153.54318,105.8135 -57.83122,-188.8985 -45.70941,189.1511 149.75511,-106.5711 -199.75766,0.505 z"
       id="path2818-7-8"
       sodipodi:nodetypes="cccccc" />
    <path
       style="fill:#ffaaaa;fill-opacity:1;fill-rule:nonzero;stroke:none"
       d="m 79.997625,363.12348 c 1.332201,-1.109 22.029325,-19.0585 45.993615,-39.8877 23.96428,-20.8292 43.63322,-37.8102 43.70875,-37.7356 0.23191,0.2292 -18.71149,78.1996 -19.07876,78.5277 -0.18936,0.1691 -16.70212,0.4885 -36.69503,0.7098 l -36.350758,0.4023 2.422183,-2.0165 0,0 z"
       id="path3719" />
    <path
       style="fill:#ffaaaa;fill-opacity:1;fill-rule:nonzero;stroke:none"
       d="m 109.35918,387.85098 -30.203491,-20.8231 35.137171,-0.1853 c 19.32544,-0.102 35.28231,-0.04 35.4597,0.1371 0.38209,0.3821 -9.12229,40.5495 -9.75543,41.2284 -0.23896,0.2562 -14.02603,-8.9045 -30.63795,-20.3571 l 0,0 z"
       id="path3721" />
    <path
       style="fill:#ffaaaa;fill-opacity:1;fill-rule:nonzero;stroke:none"
       d="m 101.64697,419.26168 c -12.996496,-27.55 -23.551413,-50.1967 -23.455376,-50.326 0.400403,-0.5391 60.995236,41.7404 61.004166,42.5651 0.009,0.8471 -13.53962,57.5613 -13.7985,57.7596 -0.0662,0.051 -10.7538,-22.4488 -23.75029,-49.9987 z"
       id="path3723" />
    <path
       style="fill:none;stroke:#000000;stroke-width:1px;stroke-linecap:round;stroke-linejoin:round;stroke-opacity:1"
       d="m 75.5,605.79618 95.96449,-83.33757 104.55079,82.83247 -46.46702,106.5711 -104.0457,0 L 75.5,605.79618 z"
       id="path2816-1-45"
       sodipodi:nodetypes="cccccc" />
    <path
       style="fill:none;stroke:#000000;stroke-width:1px;stroke-linecap:round;stroke-linejoin:round;stroke-opacity:1"
       d="M 75.75254,605.79618 229.29572,711.60968 171.4645,522.71115 125.75509,711.86218 275.5102,605.29108 75.75254,605.79618 z"
       id="path2818-7-5"
       sodipodi:nodetypes="cccccc" />
    <path
       style="fill:#ffaaaa;fill-opacity:1;fill-rule:nonzero;stroke:none"
       d="m 123.34925,565.45693 c 25.33409,-22.01265 46.14857,-39.95276 46.25437,-39.86693 0.10582,0.0858 -4.07275,17.88035 -9.28571,39.54336 l -9.47809,39.38732 -22.14286,0.01 c -12.17857,0 -28.7279,0.2189 -36.77628,0.4796 l -14.63343,0.4739 46.062,-40.02296 z"
       id="path3736" />
    <path
       style="fill:#ffaaaa;fill-opacity:1;fill-rule:nonzero;stroke:none"
       d="m 109.311,627.86708 -30.10024,-20.8391 17.77882,-0.1908 c 9.77834,-0.105 25.74362,-0.105 35.4784,0 l 17.69959,0.1908 -5.02102,20.8856 c -2.76156,11.4871 -5.18173,20.8647 -5.37816,20.8391 -0.19643,-0.026 -13.90225,-9.4241 -30.45739,-20.8856 z"
       id="path3738" />
    <path
       style="fill:#ffaaaa;fill-opacity:1;fill-rule:nonzero;stroke:none"
       d="m 159.41124,662.37098 c -9.03571,-6.2581 -16.69281,-11.7882 -17.01577,-12.2892 -0.34748,-0.5391 1.4751,-9.4606 4.46428,-21.8529 2.77832,-11.518 5.05149,-21.0851 5.05149,-21.2601 0,-0.1751 9.99573,-0.2334 22.21273,-0.1295 l 22.21273,0.1887 6.24741,20.3571 c 3.43608,11.1965 6.47364,21.0608 6.75015,21.9207 0.44884,1.396 -1.2254,2.7932 -15.6201,13.0358 -8.86755,6.3096 -16.51691,11.4576 -16.99858,11.4399 -0.48167,-0.018 -8.26862,-5.1525 -17.30434,-11.4105 z"
       id="path3740" />
    <path
       style="fill:#ffaaaa;fill-opacity:1;fill-rule:nonzero;stroke:none"
       d="m 203.01118,692.42658 c -12.94861,-8.9644 -23.62194,-16.5786 -23.71852,-16.9202 -0.0966,-0.3417 6.77882,-5.5404 15.27866,-11.5527 10.98877,-7.7728 15.59874,-10.6623 15.95432,-10 0.39715,0.7397 7.14989,22.5601 16.03807,51.8243 0.5071,1.6696 0.7124,3.0159 0.4562,2.9917 -0.25619,-0.024 -11.06012,-7.3786 -24.00873,-16.3431 z"
       id="path3742" />
    <path
       style="fill:#ffaaaa;fill-opacity:1;fill-rule:nonzero;stroke:none"
       d="m 152.89701,603.27798 c 0.20225,-0.6875 4.42071,-18.12501 9.37433,-38.75001 4.95363,-20.625 9.06873,-37.73843 9.14468,-38.02984 0.0759,-0.29142 5.40979,16.74429 11.85299,37.85714 6.4432,21.11284 11.86152,38.78881 12.04071,39.27981 0.25606,0.7018 -4.28726,0.8929 -21.22733,0.8929 -20.19069,0 -21.52988,-0.079 -21.18538,-1.25 z"
       id="path3744" />
    <path
       style="fill:none;stroke:#000000;stroke-width:1px;stroke-linecap:round;stroke-linejoin:round;stroke-opacity:1"
       d="m 340.5,365.79614 95.96449,-83.33757 104.55079,82.8325 -46.46702,106.57111 -104.0457,0 L 340.5,365.79614 z"
       id="path2816-1-7"
       sodipodi:nodetypes="cccccc" />
    <path
       style="fill:none;stroke:#000000;stroke-width:1px;stroke-linecap:round;stroke-linejoin:round;stroke-opacity:1"
       d="M 340.75254,365.79614 494.29572,471.60964 436.4645,282.71111 390.75509,471.86217 540.5102,365.29107 340.75254,365.79614 z"
       id="path2818-7-1"
       sodipodi:nodetypes="cccccc" />
    <path
       style="fill:#ffaaaa;fill-opacity:1;fill-rule:nonzero;stroke:none;stroke-width:0.71428572999999995;stroke-linecap:round;stroke-linejoin:round;stroke-miterlimit:4;stroke-opacity:1;stroke-dasharray:0.71428572000000001, 0.71428572000000001;stroke-dashoffset:0"
       d="m 453.39634,334.91906 c -5.01722,-16.40179 -10.48965,-34.24108 -12.16095,-39.64286 -1.6713,-5.40179 -2.91434,-9.82143 -2.76229,-9.82143 0.43505,0 99.54311,78.63191 99.54311,78.97709 0,0.16975 -16.98698,0.30862 -37.74883,0.30862 l -37.74883,0 -9.12221,-29.82142 z"
       id="path3833" />
    <path
       style="fill:#ffaaaa;fill-opacity:1;fill-rule:nonzero;stroke:none"
       d="m 469.65599,388.11288 c -3.61597,-11.8431 -6.47913,-21.62829 -6.36256,-21.74486 0.11657,-0.11657 16.78195,-0.12866 37.03417,-0.0269 l 36.82223,0.18506 -28.57557,20.35714 c -15.71657,11.19643 -29.42343,20.89834 -30.45968,21.5598 l -1.88409,1.20267 -6.5745,-21.53293 z"
       id="path3835" />
    <path
       style="fill:#ffaaaa;fill-opacity:1;fill-rule:nonzero;stroke:none"
       d="m 492.07358,461.16906 c -7.1082,-22.83779 -14.77166,-48.23214 -14.77166,-48.94877 0,-0.81278 60.57774,-44.29685 61.03355,-43.81126 0.17515,0.1866 -33.13098,77.16417 -43.07077,99.54574 -0.50587,1.13907 -1.15255,-0.23605 -3.19112,-6.78571 l 0,0 z"
       id="path3837" />
  </g>
</svg>
